<svg width="32" height="33" viewBox="0 0 32 33" fill="none" xmlns="http://www.w3.org/2000/svg">
<g id="Bold / Notifications / Bell ">
<g id="Vector">
<path d="M11.1357 27.2302C12.2572 28.6557 14.0189 29.5744 16 29.5744C17.9811 29.5744 19.7428 28.6557 20.8643 27.2302C17.6352 27.6677 14.3648 27.6677 11.1357 27.2302Z" fill="#7800B0"/>
<path d="M24.9988 12.241V13.1798C24.9988 14.3065 25.3204 15.4079 25.9229 16.3454L27.3995 18.6426C28.7482 20.7409 27.7186 23.5929 25.3729 24.2565C19.2363 25.9923 12.7637 25.9923 6.62715 24.2565C4.2814 23.5929 3.25176 20.7409 4.60048 18.6426L6.07706 16.3454C6.67962 15.4079 7.00116 14.3065 7.00116 13.1798V12.241C7.00116 7.08639 11.0301 2.90771 16 2.90771C20.9699 2.90771 24.9988 7.08639 24.9988 12.241Z" fill="#7800B0"/>
</g>
</g>
</svg>
