<svg width="48" height="48" viewBox="0 0 48 48" fill="none" xmlns="http://www.w3.org/2000/svg">
<path d="M24.2352 0.667969H24.129C11.2839 0.667969 0.87085 11.0841 0.87085 23.933V24.0392C0.87085 36.8881 11.2839 47.3042 24.129 47.3042H24.2352C37.0803 47.3042 47.4934 36.8881 47.4934 24.0392V23.933C47.4934 11.0841 37.0803 0.667969 24.2352 0.667969Z" fill="#FCFCFC"/>
<path fill-rule="evenodd" clip-rule="evenodd" d="M22.0548 30.3613C22.027 30.4577 22.0009 30.5394 21.9797 30.6211C20.7464 35.4542 20.6092 36.5277 19.3417 38.7726C18.7373 39.8396 18.0562 40.8509 17.3032 41.8182C17.2183 41.9277 17.1382 42.0682 16.9683 42.0339C16.7821 41.9947 16.7674 41.8264 16.7478 41.6777C16.5453 40.2088 16.4326 38.7367 16.4816 37.2531C16.5453 35.3219 16.7838 34.6585 19.2731 24.1885C19.309 24.0284 19.2682 23.896 19.2159 23.7523C18.6197 22.1445 18.5021 20.5122 19.0232 18.8587C20.1502 15.287 24.1978 15.0142 24.9051 17.9601C25.3412 19.7819 24.188 22.1674 23.3027 25.6933C22.5693 28.6017 25.9929 30.6702 28.9184 28.5461C31.6168 26.5887 32.6638 21.8961 32.4645 18.5695C32.0725 11.9375 24.8022 10.5046 20.1911 12.6401C14.9037 15.0861 13.7015 21.6412 16.0896 24.6378C16.3917 25.0185 16.9618 25.2522 16.8622 25.6378C16.7086 26.2374 16.573 26.8419 16.4064 27.4383C16.2823 27.8827 15.575 28.0445 15.1258 27.8615C14.2454 27.5053 13.512 26.9449 12.9175 26.2063C10.8904 23.695 10.3105 18.728 12.991 14.5224C15.9605 9.86415 21.4847 7.97863 26.5287 8.55049C32.5527 9.23509 36.3602 13.3525 37.0724 18.0238C37.3974 20.1511 37.1639 25.3976 34.178 29.1065C30.7429 33.3677 25.1746 33.6504 22.6052 31.0345C22.4076 30.8335 22.2492 30.5999 22.0548 30.3597V30.3613Z" fill="#7800B0"/>
</svg>
