<svg width="47" height="48" viewBox="0 0 47 48" fill="none" xmlns="http://www.w3.org/2000/svg">
<path d="M46.8674 23.9869C46.8674 35.764 38.1401 45.5004 26.8026 47.0804C25.7425 47.2274 24.6579 47.3042 23.557 47.3042C22.2862 47.3042 21.0383 47.2029 19.823 47.0069C8.72399 45.2194 0.246582 35.5925 0.246582 23.9869C0.246582 11.1085 10.6841 0.667969 23.5586 0.667969C36.4332 0.667969 46.8707 11.1085 46.8707 23.9869H46.8674Z" fill="#FCFCFC"/>
<path d="M9.70052 10.9541L20.4516 25.3324L9.63354 37.0229H12.069L21.5411 26.7882L29.1937 37.0229H37.48L26.1245 21.8358L36.1945 10.9541H33.7591L25.0366 20.38L17.9885 10.9541H9.70214H9.70052ZM13.2809 12.7481H17.0868L33.8963 35.2289H30.0904L13.2809 12.7481Z" fill="#7800B0"/>
</svg>
