<svg width="47" height="48" viewBox="0 0 47 48" fill="none" xmlns="http://www.w3.org/2000/svg">
<path d="M46.6209 23.9869C46.6209 35.764 37.8936 45.5004 26.556 47.0804C25.4959 47.2274 24.4114 47.3042 23.3104 47.3042C22.0396 47.3042 20.7917 47.2029 19.5765 47.0069C8.47742 45.2194 0 35.5925 0 23.9869C0 11.1085 10.4375 0.667969 23.3121 0.667969C36.1866 0.667969 46.6241 11.1085 46.6241 23.9869H46.6209Z" fill="#FCFCFC"/>
<path d="M26.5558 19.3932V24.473H32.8379L31.8431 31.3158H26.5558V47.0812C25.4957 47.2283 24.4111 47.3051 23.3102 47.3051C22.0394 47.3051 20.7914 47.2038 19.5762 47.0077V31.3158H13.7825V24.473H19.5762V18.2577C19.5762 14.4017 22.7009 11.2744 26.5574 11.2744V11.2777C26.5688 11.2777 26.5786 11.2744 26.5901 11.2744H32.8395V17.1924H28.756C27.5423 17.1924 26.5574 18.1776 26.5574 19.3916L26.5558 19.3932Z" fill="#7800B0"/>
</svg>
