<svg width="48" height="48" viewBox="0 0 48 48" fill="none" xmlns="http://www.w3.org/2000/svg">
<path d="M23.9886 0.667969H23.8824C11.0373 0.667969 0.624268 11.0841 0.624268 23.933V24.0392C0.624268 36.8881 11.0373 47.3042 23.8824 47.3042H23.9886C36.8337 47.3042 47.2468 36.8881 47.2468 24.0392V23.933C47.2468 11.0841 36.8337 0.667969 23.9886 0.667969Z" fill="#FCFCFC"/>
<path d="M31.1495 10.1572H16.7232C12.7377 10.1572 9.49536 13.4005 9.49536 17.3872V30.5891C9.49536 34.5758 12.7377 37.8191 16.7232 37.8191H31.1495C35.135 37.8191 38.3774 34.5758 38.3774 30.5891V17.3872C38.3774 13.4005 35.135 10.1572 31.1495 10.1572ZM12.0451 17.3872C12.0451 14.8073 14.1441 12.7077 16.7232 12.7077H31.1495C33.7287 12.7077 35.8276 14.8073 35.8276 17.3872V30.5891C35.8276 33.169 33.7287 35.2686 31.1495 35.2686H16.7232C14.1441 35.2686 12.0451 33.169 12.0451 30.5891V17.3872Z" fill="#7800B0"/>
<path d="M23.9365 30.7119C27.6427 30.7119 30.6596 27.6958 30.6596 23.9868C30.6596 20.2779 27.6444 17.2617 23.9365 17.2617C20.2287 17.2617 17.2134 20.2779 17.2134 23.9868C17.2134 27.6958 20.2287 30.7119 23.9365 30.7119ZM23.9365 19.8139C26.238 19.8139 28.1099 21.6863 28.1099 23.9885C28.1099 26.2906 26.238 28.1631 23.9365 28.1631C21.635 28.1631 19.7631 26.2906 19.7631 23.9885C19.7631 21.6863 21.635 19.8139 23.9365 19.8139Z" fill="#7800B0"/>
<path d="M31.2817 18.3476C32.2797 18.3476 33.0931 17.5356 33.0931 16.5356C33.0931 15.5357 32.2813 14.7236 31.2817 14.7236C30.282 14.7236 29.4702 15.5357 29.4702 16.5356C29.4702 17.5356 30.282 18.3476 31.2817 18.3476Z" fill="#7800B0"/>
</svg>
