<svg width="48" height="48" viewBox="0 0 48 48" fill="none" xmlns="http://www.w3.org/2000/svg">
<path d="M23.8578 0.667969H23.7516C10.9065 0.667969 0.493408 11.0841 0.493408 23.933V24.0392C0.493408 36.8881 10.9065 47.3042 23.7516 47.3042H23.8578C36.7029 47.3042 47.1159 36.8881 47.1159 24.0392V23.933C47.1159 11.0841 36.7029 0.667969 23.8578 0.667969Z" fill="#FCFCFC"/>
<path d="M11.612 16.1685C10.9978 15.5982 10.6924 14.8924 10.6924 14.0526C10.6924 13.2128 10.9994 12.4759 11.612 11.904C12.2261 11.3338 13.0167 11.0479 13.9853 11.0479C14.9539 11.0479 15.7135 11.3338 16.326 11.904C16.9402 12.4742 17.2456 13.1915 17.2456 14.0526C17.2456 14.9136 16.9386 15.5982 16.326 16.1685C15.7119 16.7387 14.9327 17.0246 13.9853 17.0246C13.0379 17.0246 12.2261 16.7387 11.612 16.1685ZM16.7295 19.4395V36.9222H11.2069V19.4395H16.7295Z" fill="#7800B0"/>
<path d="M35.1133 21.1658C36.3171 22.4729 36.9182 24.2669 36.9182 26.5511V36.6126H31.6733V27.2602C31.6733 26.1083 31.3744 25.2129 30.7782 24.5757C30.182 23.9385 29.3784 23.6182 28.3722 23.6182C27.366 23.6182 26.5624 23.9368 25.9662 24.5757C25.37 25.2129 25.0711 26.1083 25.0711 27.2602V36.6126H19.7952V19.3897H25.0711V21.6739C25.6052 20.9125 26.3256 20.3112 27.2305 19.8684C28.1354 19.4257 29.153 19.2051 30.2849 19.2051C32.3006 19.2051 33.9111 19.8586 35.1133 21.1641V21.1658Z" fill="#7800B0"/>
</svg>
