<svg width="91" height="90" viewBox="0 0 91 90" fill="none" xmlns="http://www.w3.org/2000/svg">
<g id="solar:tag-price-bold">
<path id="Vector" fill-rule="evenodd" clip-rule="evenodd" d="M61.0137 17.7299L67.8762 24.5924C77.96 34.6799 83 39.7199 83 45.9824C83 52.2487 77.96 57.2887 67.8762 67.3724C57.7887 77.4599 52.7487 82.4999 46.4825 82.4999C40.22 82.4999 35.1762 77.4599 25.0925 67.3762L18.23 60.5137C12.4362 54.7162 9.53749 51.8212 8.46124 48.0599C7.38124 44.2987 8.30374 40.3049 10.1487 32.3212L11.21 27.7162C12.7587 20.9962 13.535 17.6362 15.8337 15.3337C18.1325 13.0312 21.4962 12.2587 28.2162 10.7099L32.8212 9.64494C40.8087 7.80369 44.7987 6.88119 48.56 7.95744C52.3212 9.03744 55.22 11.9362 61.0137 17.7299ZM42.2975 53.7299C39.7737 51.2099 39.7925 47.5874 41.3037 44.7187C40.9296 44.1783 40.7565 43.5239 40.8146 42.8692C40.8727 42.2145 41.1583 41.6008 41.6217 41.1347C42.0851 40.6687 42.6971 40.3796 43.3515 40.3177C44.0058 40.2559 44.6612 40.4252 45.2037 40.7962C46.4787 40.1212 47.8775 39.7612 49.2725 39.7762C50.0184 39.7832 50.731 40.0861 51.2535 40.6185C51.7761 41.1509 52.0657 41.869 52.0587 42.6149C52.0518 43.3609 51.7488 44.0735 51.2164 44.596C50.684 45.1185 49.9659 45.4082 49.22 45.4012C48.3517 45.4333 47.531 45.8065 46.9362 46.4399C45.485 47.8912 45.8637 49.3462 46.2725 49.7549C46.685 50.1637 48.1362 50.5424 49.5875 49.0912C52.5275 46.1512 57.605 45.1762 60.8562 48.4274C63.38 50.9512 63.3612 54.5737 61.85 57.4424C62.2218 57.983 62.3929 58.6364 62.3338 59.2898C62.2746 59.9431 61.989 60.5553 61.5262 61.0203C61.0634 61.4852 60.4527 61.7738 59.7996 61.8361C59.1466 61.8984 58.4923 61.7304 57.95 61.3612C56.2672 62.2845 54.3152 62.5922 52.43 62.2312C51.699 62.081 51.0576 61.6466 50.6469 61.0235C50.2362 60.4004 50.0898 59.6397 50.24 58.9087C50.3902 58.1777 50.8246 57.5363 51.4477 57.1256C52.0708 56.7149 52.8315 56.5685 53.5625 56.7187C54.2262 56.8574 55.2987 56.6399 56.2175 55.7212C57.6687 54.2662 57.29 52.8149 56.8812 52.4062C56.4687 51.9974 55.0175 51.6187 53.5662 53.0699C50.6262 56.0099 45.5487 56.9849 42.2975 53.7299ZM38.075 38.5987C38.7713 37.9021 39.3236 37.0752 39.7004 36.1652C40.0772 35.2551 40.271 34.2798 40.2708 33.2949C40.2706 32.3099 40.0765 31.3347 39.6994 30.4248C39.3223 29.5149 38.7697 28.6882 38.0731 27.9918C37.3765 27.2955 36.5496 26.7432 35.6396 26.3664C34.7296 25.9897 33.7542 25.7958 32.7693 25.796C31.7843 25.7962 30.8091 25.9903 29.8992 26.3674C28.9893 26.7445 28.1626 27.2971 27.4662 27.9937C26.0599 29.4005 25.2701 31.3083 25.2704 33.2975C25.2708 35.2867 26.0613 37.1943 27.4681 38.6006C28.8749 40.0069 30.7828 40.7967 32.7719 40.7964C34.7611 40.796 36.6687 40.0055 38.075 38.5987Z" fill="#7800B0"/>
</g>
</svg>
