<svg width="91" height="90" viewBox="0 0 91 90" fill="none" xmlns="http://www.w3.org/2000/svg">
<g id="tabler:search">
<path id="Vector" d="M79.25 78.75L56.75 56.25M11.75 37.5C11.75 40.9472 12.429 44.3606 13.7482 47.5454C15.0673 50.7302 17.0009 53.624 19.4384 56.0616C21.876 58.4991 24.7698 60.4327 27.9546 61.7518C31.1394 63.071 34.5528 63.75 38 63.75C41.4472 63.75 44.8606 63.071 48.0454 61.7518C51.2302 60.4327 54.124 58.4991 56.5616 56.0616C58.9991 53.624 60.9327 50.7302 62.2518 47.5454C63.571 44.3606 64.25 40.9472 64.25 37.5C64.25 34.0528 63.571 30.6394 62.2518 27.4546C60.9327 24.2698 58.9991 21.376 56.5616 18.9384C54.124 16.5009 51.2302 14.5673 48.0454 13.2482C44.8606 11.929 41.4472 11.25 38 11.25C34.5528 11.25 31.1394 11.929 27.9546 13.2482C24.7698 14.5673 21.876 16.5009 19.4384 18.9384C17.0009 21.376 15.0673 24.2698 13.7482 27.4546C12.429 30.6394 11.75 34.0528 11.75 37.5Z" stroke="#7800B0" stroke-width="5" stroke-linecap="round" stroke-linejoin="round"/>
</g>
</svg>
