<svg width="91" height="90" viewBox="0 0 91 90" fill="none" xmlns="http://www.w3.org/2000/svg">
<g id="tabler:message-filled">
<path id="Vector" d="M68 11.25C71.9782 11.25 75.7936 12.8304 78.6066 15.6434C81.4196 18.4564 83 22.2718 83 26.25V56.25C83 60.2283 81.4196 64.0436 78.6066 66.8566C75.7936 69.6696 71.9782 71.25 68 71.25H50.285L32.4275 81.9638C31.8897 82.2865 31.2796 82.4692 30.6529 82.4951C30.0262 82.521 29.4031 82.3894 28.8405 82.1122C28.2779 81.835 27.7938 81.4211 27.4325 80.9084C27.0712 80.3957 26.8443 79.8006 26.7725 79.1775L26.75 78.75V71.25H23C19.1516 71.25 15.4504 69.7709 12.662 67.1185C9.87352 64.4662 8.21117 60.8436 8.01875 57L8 56.25V26.25C8 22.2718 9.58035 18.4564 12.3934 15.6434C15.2064 12.8304 19.0218 11.25 23 11.25H68ZM53 45H30.5C29.5054 45 28.5516 45.3951 27.8484 46.0984C27.1451 46.8016 26.75 47.7554 26.75 48.75C26.75 49.7446 27.1451 50.6984 27.8484 51.4017C28.5516 52.1049 29.5054 52.5 30.5 52.5H53C53.9946 52.5 54.9484 52.1049 55.6516 51.4017C56.3549 50.6984 56.75 49.7446 56.75 48.75C56.75 47.7554 56.3549 46.8016 55.6516 46.0984C54.9484 45.3951 53.9946 45 53 45ZM60.5 30H30.5C29.5054 30 28.5516 30.3951 27.8484 31.0984C27.1451 31.8016 26.75 32.7554 26.75 33.75C26.75 34.7446 27.1451 35.6984 27.8484 36.4017C28.5516 37.1049 29.5054 37.5 30.5 37.5H60.5C61.4946 37.5 62.4484 37.1049 63.1517 36.4017C63.8549 35.6984 64.25 34.7446 64.25 33.75C64.25 32.7554 63.8549 31.8016 63.1517 31.0984C62.4484 30.3951 61.4946 30 60.5 30Z" fill="#7800B0"/>
</g>
</svg>
