<svg width="89" height="89" viewBox="0 0 89 89" fill="none" xmlns="http://www.w3.org/2000/svg">
<g id="mdi:deal">
<rect width="89" height="89" rx="44.5" fill="#7800B0"/>
<g id="Vector">
<path d="M41.7312 18.2221C41.5591 18.3949 41.4854 18.7157 41.4239 19.3944C41.3379 20.5667 40.9938 21.2701 40.3179 21.6156C39.3962 22.0969 38.6465 21.8994 37.5282 20.8999C36.5205 20.0114 36.3361 20.0854 34.1855 22.2943C32.5141 23.9972 32.4158 24.1823 32.7845 24.8857C32.8828 25.0708 33.104 25.3546 33.2883 25.5274C34.2715 26.4405 34.3329 27.6498 33.4358 28.5877C32.9934 29.0442 32.4527 29.2293 31.4941 29.2293C30.7567 29.2293 30.3389 29.4761 30.2037 30.0068C30.1668 30.1672 30.1545 31.3271 30.1791 32.5981C30.2283 35.4363 30.2037 35.3993 31.8136 35.5227C32.9197 35.6091 33.276 35.7695 33.7553 36.3988C34.0503 36.8061 34.1486 37.5958 33.9765 38.1388C33.9028 38.3856 33.5833 38.8421 33.276 39.1753C32.6984 39.817 32.5387 40.1625 32.6493 40.6191C32.6984 40.7672 33.4973 41.6556 34.4313 42.5935C36.0043 44.1607 36.1641 44.2841 36.5942 44.2841C36.9629 44.2841 37.1595 44.1853 37.6388 43.7288C38.2533 43.1488 38.9169 42.8033 39.3962 42.8033C39.9246 42.8156 40.6989 43.2598 41.0307 43.7534C41.2765 44.136 41.3625 44.4568 41.4239 45.2589C41.5345 46.7644 41.4977 46.752 44.5577 46.752C46.991 46.752 47.0033 46.752 47.2983 46.4435C47.5441 46.2091 47.6055 46.024 47.6055 45.4934C47.6055 44.1113 48.1462 43.2228 49.1786 42.9143C49.9036 42.7045 50.5304 42.9143 51.3661 43.6794C51.9068 44.173 52.1157 44.2841 52.4844 44.2841C52.9145 44.2841 53.0743 44.1483 54.6965 42.5194C56.7734 40.434 56.798 40.3723 55.8886 39.3357C54.9792 38.2992 54.7702 37.5341 55.1758 36.6703C55.5445 35.9176 56.0852 35.6214 57.265 35.5227C58.8872 35.387 58.8503 35.4733 58.8503 32.3884C58.8503 29.8957 58.8503 29.8587 58.5554 29.5502C58.2973 29.2787 58.1498 29.2293 57.5108 29.217C56.3556 29.2047 55.7042 28.8838 55.2372 28.1187C54.7457 27.292 54.9423 26.4035 55.8517 25.4533C56.1712 25.1325 56.3679 24.7993 56.417 24.4908C56.4908 24.0466 56.4662 24.0219 54.7211 22.2449C53.7502 21.2577 52.8285 20.431 52.6687 20.3816C52.3124 20.2952 51.7962 20.5173 51.5627 20.8629C51.2186 21.3441 50.2969 21.8254 49.7193 21.8254C48.4658 21.8254 47.7407 20.9986 47.6301 19.4438C47.5932 18.7774 47.5072 18.4813 47.3229 18.2715C47.0771 18.0123 47.0033 18 44.5086 18C42.1859 18 41.9278 18.0247 41.7312 18.2221ZM45.9956 26.6997C48.0848 27.2549 49.5595 28.7604 50.1125 30.8952C50.7885 33.499 49.5104 36.4112 47.2 37.5588C44.3365 38.9532 40.8095 37.8673 39.4453 35.1648C37.6879 31.6973 39.3839 27.6992 43.0216 26.6997C43.8204 26.4775 45.1845 26.4775 45.9956 26.6997Z" fill="#FCFCFC"/>
<path d="M19.8314 49.9357V59.5732L20.237 59.4251C20.5073 59.3388 22.7317 59.2771 27.1805 59.24L33.7185 59.203V54.5385C33.7185 50.1208 33.7062 49.8494 33.485 49.5779L33.2515 49.2817L20.5565 49.2077L19.8314 49.9357Z" fill="#FCFCFC"/>
<path d="M37.5896 49.8123L37.5159 59.2154H51.5504L51.4767 49.8123L50.7885 49.22H38.2778L37.5896 49.8123Z" fill="#FCFCFC"/>
<path d="M55.6551 49.5285L55.3478 49.8247V59.203L61.8981 59.24C66.3346 59.2771 68.559 59.3388 68.8416 59.4251L69.2349 59.5732V49.9357L68.5221 49.22H55.95L55.6551 49.5285Z" fill="#FCFCFC"/>
<path d="M20.9498 61.2021C19.1801 61.4983 17.8405 62.6459 17.2384 64.3735C16.8574 65.4347 16.9434 67.261 17.4227 68.3099C17.8528 69.2477 18.7991 70.1979 19.7946 70.6668L20.5073 71H68.4361L69.2595 70.6051C70.3041 70.1115 71.1152 69.2971 71.6067 68.2482C71.9754 67.4708 72 67.335 72 66.064C72 64.8547 71.9631 64.6326 71.6682 64.0033C71.0046 62.5842 69.5913 61.4859 68.0797 61.2021C67.1703 61.0293 21.9575 61.0417 20.9498 61.2021ZM26.1113 65.4964C26.3079 65.6938 26.4677 65.9776 26.4677 66.1257C26.4677 66.4836 25.927 66.9895 25.546 66.9895C25.165 66.9895 24.6243 66.4836 24.6243 66.1257C24.6243 65.8172 25.2511 65.1385 25.546 65.1385C25.6566 65.1385 25.9147 65.299 26.1113 65.4964ZM33.7308 65.4964C34.1609 65.9406 34.1855 66.2861 33.7799 66.681C33.3744 67.1006 32.8336 67.0882 32.5018 66.6687C32.0963 66.1504 32.2069 65.6321 32.7968 65.2866C33.1777 65.0645 33.3375 65.1139 33.7308 65.4964ZM41.3748 65.5334C41.8418 66.0764 41.4608 66.9895 40.7603 66.9895C40.0844 66.9895 39.6174 66.1134 40.0229 65.6075C40.4162 65.1015 40.9692 65.0768 41.3748 65.5334ZM48.9942 65.5334C49.2769 65.8666 49.2646 66.4342 48.9573 66.7427C48.4412 67.261 47.4826 66.8908 47.4826 66.1751C47.4826 65.2619 48.4166 64.8671 48.9942 65.5334ZM56.245 65.2866C56.8594 65.6074 56.9823 66.1381 56.5645 66.6687C56.1467 67.2116 55.3601 67.0512 55.1266 66.3849C54.9792 65.953 55.1635 65.5211 55.5936 65.299C55.9746 65.1139 55.9254 65.1138 56.245 65.2866ZM64.0856 65.4964C64.5035 65.9283 64.528 66.2244 64.1839 66.6687C63.8521 67.0882 63.3114 67.1006 62.9058 66.681C62.5003 66.2861 62.5249 65.9406 62.955 65.4964C63.4097 65.0398 63.6309 65.0398 64.0856 65.4964Z" fill="#FCFCFC"/>
</g>
</g>
</svg>
