<svg width="89" height="89" viewBox="0 0 89 89" fill="none" xmlns="http://www.w3.org/2000/svg">
<g id="mdi:deal">
<rect width="89" height="89" rx="44.5" fill="#7800B0"/>
<path id="Vector" d="M72.2815 39.3961H69.5996L62.7011 23.8757C62.3889 23.1735 61.8798 22.5769 61.2354 22.1582C60.591 21.7395 59.8391 21.5166 59.0706 21.5166H29.8675C29.099 21.5166 28.347 21.7395 27.7026 22.1582C27.0583 22.5769 26.5491 23.1735 26.2369 23.8757L19.3384 39.3961H16.6565C16.1296 39.3961 15.6243 39.6054 15.2518 39.9779C14.8792 40.3505 14.6699 40.8558 14.6699 41.3827C14.6699 41.9096 14.8792 42.4149 15.2518 42.7874C15.6243 43.16 16.1296 43.3693 16.6565 43.3693H18.6431V63.2354C18.6431 64.2891 19.0617 65.2997 19.8069 66.0448C20.552 66.79 21.5626 67.2086 22.6164 67.2086H28.5762C29.6299 67.2086 30.6405 66.79 31.3857 66.0448C32.1308 65.2997 32.5494 64.2891 32.5494 63.2354V61.2487H56.3887V63.2354C56.3887 64.2891 56.8073 65.2997 57.5524 66.0448C58.2975 66.79 59.3081 67.2086 60.3619 67.2086H66.3217C67.3755 67.2086 68.3861 66.79 69.1312 66.0448C69.8763 65.2997 70.2949 64.2891 70.2949 63.2354V43.3693H72.2815C72.8084 43.3693 73.3137 43.16 73.6863 42.7874C74.0588 42.4149 74.2681 41.9096 74.2681 41.3827C74.2681 40.8558 74.0588 40.3505 73.6863 39.9779C73.3137 39.6054 72.8084 39.3961 72.2815 39.3961ZM32.5494 51.3157H26.5896C26.0627 51.3157 25.5574 51.1064 25.1848 50.7338C24.8123 50.3613 24.603 49.856 24.603 49.3291C24.603 48.8022 24.8123 48.2969 25.1848 47.9244C25.5574 47.5518 26.0627 47.3425 26.5896 47.3425H32.5494C33.0763 47.3425 33.5816 47.5518 33.9541 47.9244C34.3267 48.2969 34.536 48.8022 34.536 49.3291C34.536 49.856 34.3267 50.3613 33.9541 50.7338C33.5816 51.1064 33.0763 51.3157 32.5494 51.3157ZM62.3485 51.3157H56.3887C55.8618 51.3157 55.3565 51.1064 54.9839 50.7338C54.6114 50.3613 54.4021 49.856 54.4021 49.3291C54.4021 48.8022 54.6114 48.2969 54.9839 47.9244C55.3565 47.5518 55.8618 47.3425 56.3887 47.3425H62.3485C62.8754 47.3425 63.3807 47.5518 63.7532 47.9244C64.1258 48.2969 64.3351 48.8022 64.3351 49.3291C64.3351 49.856 64.1258 50.3613 63.7532 50.7338C63.3807 51.1064 62.8754 51.3157 62.3485 51.3157ZM23.6866 39.3961L29.8675 25.4898H59.0706L65.2514 39.3961H23.6866Z" fill="#FCFCFC"/>
</g>
</svg>
