<svg width="89" height="89" viewBox="0 0 89 89" fill="none" xmlns="http://www.w3.org/2000/svg">
<g id="mdi:deal">
<rect width="89" height="89" rx="44.5" fill="#7800B0"/>
<path id="Vector" d="M44.3472 45.3559C54.7888 45.3559 65.5033 52.1448 66.1972 65.7835C66.2239 66.3092 66.0409 66.8241 65.6882 67.2149C65.3356 67.6058 64.8423 67.8407 64.3166 67.8681C58.8071 68.1489 33.2911 68.3211 24.3805 67.8681C23.8543 67.8414 23.3603 67.6068 23.0071 67.2158C22.6539 66.8249 22.4705 66.3097 22.4972 65.7835C23.1912 52.1474 33.9056 45.3559 44.3472 45.3559ZM44.3472 21.5166C41.7128 21.5166 39.1863 22.5631 37.3235 24.4259C35.4607 26.2887 34.4142 28.8152 34.4142 31.4496C34.4142 34.084 35.4607 36.6105 37.3235 38.4734C39.1863 40.3362 41.7128 41.3827 44.3472 41.3827C46.9816 41.3827 49.5081 40.3362 51.3709 38.4734C53.2337 36.6105 54.2802 34.084 54.2802 31.4496C54.2802 28.8152 53.2337 26.2887 51.3709 24.4259C49.5081 22.5631 46.9816 21.5166 44.3472 21.5166Z" fill="#FCFCFC"/>
</g>
</svg>
