<svg width="89" height="89" viewBox="0 0 89 89" fill="none" xmlns="http://www.w3.org/2000/svg">
<g id="mdi:deal">
<rect width="89" height="89" rx="44.5" fill="#7800B0"/>
<path id="Vector" d="M41.8514 28.6071H49.7979L58.5125 19.866C58.7587 19.6178 59.0517 19.4207 59.3744 19.2862C59.6972 19.1518 60.0434 19.0825 60.3931 19.0825C60.7428 19.0825 61.089 19.1518 61.4118 19.2862C61.7346 19.4207 62.0275 19.6178 62.2738 19.866L69.1077 26.7264C69.601 27.2227 69.8779 27.8941 69.8779 28.5939C69.8779 29.2936 69.601 29.965 69.1077 30.4613L63.0419 36.5535H41.8514V41.8512C41.8514 42.5537 41.5724 43.2274 41.0756 43.7241C40.5789 44.2209 39.9051 44.5 39.2026 44.5C38.5001 44.5 37.8264 44.2209 37.3296 43.7241C36.8329 43.2274 36.5538 42.5537 36.5538 41.8512V33.9047C36.5538 32.4997 37.112 31.1522 38.1055 30.1587C39.099 29.1652 40.4464 28.6071 41.8514 28.6071ZM25.9586 41.8512V52.4464L19.8928 58.5122C19.3995 59.0085 19.1226 59.6798 19.1226 60.3796C19.1226 61.0794 19.3995 61.7507 19.8928 62.247L26.7267 69.1074C26.973 69.3557 27.2659 69.5527 27.5887 69.6872C27.9115 69.8217 28.2577 69.8909 28.6074 69.8909C28.9571 69.8909 29.3033 69.8217 29.6261 69.6872C29.9488 69.5527 30.2418 69.3557 30.4881 69.1074L41.8514 57.744H52.4467C53.1492 57.744 53.8229 57.4649 54.3197 56.9682C54.8164 56.4714 55.0955 55.7977 55.0955 55.0952V52.4464H57.7443C58.4468 52.4464 59.1205 52.1673 59.6173 51.6706C60.114 51.1738 60.3931 50.5001 60.3931 49.7976V47.1488H63.0419C63.7444 47.1488 64.4182 46.8697 64.9149 46.373C65.4117 45.8762 65.6907 45.2025 65.6907 44.5V41.8512H47.1491V44.5C47.1491 45.905 46.5909 47.2524 45.5974 48.2459C44.6039 49.2394 43.2565 49.7976 41.8514 49.7976H36.5538C35.1488 49.7976 33.8013 49.2394 32.8078 48.2459C31.8143 47.2524 31.2562 45.905 31.2562 44.5V36.5535L25.9586 41.8512Z" fill="#FCFCFC"/>
</g>
</svg>
