<svg width="91" height="91" viewBox="0 0 91 91" fill="none" xmlns="http://www.w3.org/2000/svg">
<path d="M26.7794 2.24023C26.3927 2.41602 25.8302 2.83789 25.5138 3.1543C24.6173 4.12109 24.4063 4.82422 24.4063 7.00391V8.9375H21.9454C19.713 8.9375 19.4493 8.97266 19.1329 9.28906C18.9395 9.48242 18.7813 9.79883 18.7813 9.99219C18.7813 10.3262 18.6583 10.3438 14.422 10.3438C10.9415 10.3438 9.86923 10.3965 9.09579 10.625C6.54696 11.3809 4.22665 13.2266 3.08407 15.4062C1.81845 17.832 1.90634 15.0723 1.90634 49.7188C1.90634 77.791 1.94149 81.043 2.18759 81.9043C2.94345 84.4531 4.78915 86.7734 6.96884 87.916C9.37704 89.1816 7.42587 89.0938 34.1622 89.0938C60.8634 89.0938 59.1583 89.1641 61.5138 87.9336C62.8497 87.2305 64.7481 85.3672 65.3634 84.1719L65.7149 83.4688H70.3731H75.0313V84.7344C75.0489 86.7207 75.9102 88.1445 77.5274 88.8125C78.4591 89.1992 82.8536 89.1992 83.7852 88.8125C85.42 88.1445 86.2638 86.7207 86.2813 84.6816C86.2813 83.4512 86.3165 83.3281 86.7032 83.1523C87.4415 82.8184 88.4434 81.8164 88.7598 81.0957C89.1993 80.1641 89.1993 78.3359 88.7598 77.4043C88.4434 76.6836 87.4415 75.6816 86.7032 75.3477L86.2813 75.1543V71.4453C86.2813 67.9648 86.2462 67.666 85.8419 66.5234C85.6134 65.8379 85.4376 65.293 85.4552 65.2754C85.4727 65.2578 85.8243 65.1523 86.2462 65.0293C87.1602 64.7656 88.2852 63.7988 88.795 62.832C89.2872 61.8477 89.3048 60.0898 88.795 59.123C87.9161 57.418 86.7208 56.7676 84.5059 56.75H83.0118L82.8184 53.9727C82.5899 50.9668 82.2911 49.7539 81.3595 48.3125C80.6212 47.1699 78.9688 45.6406 77.879 45.0781C76.1739 44.2168 75.3126 44.0938 70.7774 44.0938H66.5938V31.2969C66.5938 17.1289 66.6466 17.7441 65.4337 15.4238C64.3087 13.2793 62.2872 11.6094 59.8614 10.7832C58.5782 10.3613 58.3673 10.3438 54.1309 10.3438C49.8419 10.3438 49.7188 10.3262 49.7188 9.99219C49.7188 9.79883 49.5606 9.48242 49.3673 9.28906C49.0509 8.97266 48.7872 8.9375 46.5548 8.9375H44.0938V7.00391C44.0938 4.82422 43.8829 4.12109 42.9864 3.1543C41.8087 1.92383 41.7911 1.90625 34.2501 1.90625C28.0274 1.90625 27.4298 1.94141 26.7794 2.24023ZM40.297 4.96484C41.0352 5.28125 41.2813 5.93164 41.2813 7.63672V8.9375H34.2501H27.2188V7.63672C27.2188 5.9668 27.4649 5.28125 28.1681 4.96484C28.9766 4.61328 39.4532 4.61328 40.297 4.96484ZM46.8712 14.8613C46.8184 17.6035 46.7833 18.0605 46.4669 18.5879C46.0099 19.3613 45.377 19.8184 44.5157 20.0117C43.6192 20.2227 24.8809 20.2227 23.9845 20.0117C23.1231 19.8184 22.4903 19.3613 22.0333 18.5879C21.7169 18.0605 21.6817 17.6035 21.629 14.8613L21.5587 11.75H34.2501H46.9415L46.8712 14.8613ZM18.7813 14.5625V15.9688H14.7032C10.1329 15.9688 9.74618 16.0566 8.63876 17.2168C7.44345 18.4824 7.53134 15.9336 7.53134 49.7188C7.53134 83.5039 7.44345 80.9551 8.63876 82.2207C9.88681 83.5215 9.14852 83.4688 23.1407 83.4688H35.6563V82.0625V80.6562H23.7911C10.6778 80.6562 10.9239 80.6738 10.5372 79.6016C10.2559 78.7754 10.2559 20.6621 10.5372 19.8359C10.8712 18.9043 11.4161 18.7812 15.4239 18.7812H18.922L19.045 19.291C19.3087 20.5391 20.9786 22.209 22.4727 22.7363C23.5802 23.123 44.92 23.123 46.0274 22.7363C47.5216 22.209 49.1915 20.5391 49.4552 19.291L49.5782 18.7812H53.0763C57.0841 18.7812 57.629 18.9043 57.963 19.8359C58.1036 20.2402 58.1563 23.8789 58.1563 32.2461V44.0938H55.379C51.4063 44.0938 49.8946 44.5508 47.8731 46.4141C45.711 48.3828 45.0255 50.0527 44.7442 53.9727L44.5509 56.75H43.0567C40.8419 56.7676 39.6466 57.418 38.7677 59.123C38.2579 60.0898 38.2755 61.8477 38.7677 62.8145C39.4356 64.0977 40.9298 65.1875 42.002 65.1875C42.2833 65.1875 42.336 65.2402 42.1954 65.3984C42.0899 65.5215 41.8438 66.1191 41.6505 66.7168C41.3165 67.6836 41.2813 68.2285 41.2813 71.4805V75.1543L40.8595 75.3477C40.1212 75.6816 39.1192 76.6836 38.8028 77.4043C38.5919 77.8613 38.4688 78.5117 38.4688 79.25C38.4688 79.9883 38.5919 80.6387 38.8028 81.0957C39.1192 81.8164 40.1212 82.8184 40.8595 83.1523C41.2286 83.3281 41.2638 83.4688 41.3165 84.8047L41.3692 86.2812H26.7794C17.9376 86.2812 11.7149 86.2109 10.9591 86.1055C9.28915 85.8594 8.05868 85.2441 6.89852 84.1016C5.75595 82.9414 5.14071 81.7109 4.89462 80.041C4.6661 78.3535 4.6661 21.084 4.89462 19.3965C5.14071 17.7266 5.75595 16.4961 6.89852 15.3359C8.02352 14.2285 9.32431 13.5605 10.8009 13.3496C11.3809 13.2617 13.4024 13.1914 15.3184 13.1738L18.7813 13.1562V14.5625ZM57.5411 13.332C59.211 13.5781 60.4415 14.1934 61.6017 15.3359C62.7442 16.4961 63.3595 17.7266 63.6056 19.3965C63.6934 20.1172 63.7813 25.4258 63.7813 32.3516V44.0938H62.3751H60.9688V31.6133C60.9688 17.8496 61.0216 18.4297 59.8614 17.2168C58.754 16.0566 58.3673 15.9688 53.8145 15.9688H49.7188V14.5625V13.1562H53.0235C54.8341 13.1562 56.8556 13.2441 57.5411 13.332ZM76.4024 47.7676C77.0001 48.1016 77.7559 48.6465 78.0548 48.998L78.6173 49.6309L71.1993 49.6836C67.1212 49.7012 60.4415 49.7012 56.3809 49.6836L48.963 49.6309L49.4552 49.0508C49.9649 48.4355 51.1251 47.6973 52.1446 47.3281C52.672 47.1348 55.0802 47.0996 64.045 47.1348L75.295 47.1699L76.4024 47.7676ZM79.7774 53.0938C79.7774 53.3223 79.9005 55.1855 80.0411 57.2598C80.1817 59.334 80.2872 61.0566 80.252 61.0742C80.2345 61.0918 79.6895 61.0742 79.0391 61.0215L77.8438 60.916V60.3359C77.8438 58.5605 76.2442 56.3984 74.4161 55.7129C73.0977 55.2207 71.3399 55.2207 70.0216 55.7129C68.1935 56.3984 66.5938 58.5605 66.5938 60.3535V60.9512L56.9786 61.0039C51.67 61.0391 47.3282 61.0566 47.2931 61.0391C47.2755 61.0391 47.3809 59.2988 47.5216 57.1719C47.6622 55.0625 47.7852 53.1816 47.7852 53.0059C47.7852 52.7246 48.6642 52.707 63.7813 52.707H79.7774V53.0938ZM73.5899 58.6836C74.2403 59.0879 74.8556 60.002 74.8556 60.5645C74.8556 60.9688 74.838 60.9688 72.2188 60.9688C69.5997 60.9688 69.5821 60.9688 69.5821 60.5645C69.5821 60.002 70.1974 59.0879 70.8477 58.6836C71.6036 58.2266 72.8341 58.2266 73.5899 58.6836ZM44.3048 60.9688L44.2345 62.375H43.5489C42.547 62.375 41.6681 61.9707 41.5274 61.4258C41.2462 60.2656 41.9845 59.5801 43.5665 59.5625H44.3575L44.3048 60.9688ZM85.3145 59.8086C85.9649 60.0898 86.2286 60.6523 86.0352 61.4258C85.8946 61.9707 85.0157 62.375 84.0138 62.375H83.3282L83.2579 60.9688L83.2052 59.5625H83.961C84.3653 59.5625 84.9806 59.668 85.3145 59.8086ZM78.1954 63.9395C78.5821 64.0449 78.547 64.0801 77.7735 64.3789C74.8731 65.4863 74.0118 68.8438 76.0684 71.041C77.0177 72.0781 77.545 72.2188 80.6563 72.2188H83.4688V73.625V75.0312H79.0216H74.5743L73.8888 73.5898C73.0099 71.7617 71.92 70.5664 70.5489 69.916L69.4942 69.4062H63.7813H58.0684L57.0138 69.916C55.6427 70.5664 54.5528 71.7617 53.6739 73.5898L52.9884 75.0312H48.5411H44.0938V73.625V72.2188H46.8184C49.8067 72.2188 50.4395 72.0781 51.3536 71.1992C52.1798 70.4258 52.5313 69.5469 52.5313 68.3164C52.5138 66.4004 51.5997 65.0645 49.7892 64.3789C49.0157 64.0801 48.9806 64.0449 49.3673 63.9395C49.9474 63.7812 77.6153 63.7812 78.1954 63.9395ZM47.5216 66.6992C49.4376 67.543 49.7364 67.8418 49.4552 68.668C49.297 69.2129 48.4532 69.4062 46.2384 69.4062H44.2169L44.3224 68.5449C44.4278 67.6484 44.797 66.752 45.2892 66.1895C45.4298 66.0312 45.588 65.8906 45.6056 65.8906C45.6407 65.8906 46.502 66.2598 47.5216 66.6992ZM82.2735 66.1895C82.7657 66.752 83.1348 67.6484 83.2403 68.5625L83.3458 69.4414L80.9727 69.3887C79.3028 69.3359 78.5118 69.248 78.3184 69.0723C78.002 68.8262 77.9317 68.0703 78.1602 67.6836C78.2833 67.5078 81.5704 65.9258 81.9044 65.9082C81.9571 65.8906 82.1329 66.0312 82.2735 66.1895ZM69.3185 72.6758C69.9513 72.9922 71.1642 74.4512 71.1642 74.873C71.1642 74.9609 67.9649 75.0312 63.7813 75.0312C59.7208 75.0312 56.3985 74.9785 56.3985 74.9082C56.3985 74.5918 57.3477 73.2559 57.7872 72.9395C58.6485 72.3242 59.4747 72.2363 64.1329 72.2715C68.2813 72.3066 68.6681 72.3418 69.3185 72.6758ZM85.3145 78.0898C86.3868 78.5469 86.3868 79.9531 85.3145 80.4102C84.4181 80.7793 43.1446 80.7793 42.2481 80.4102C41.1934 79.9707 41.1759 78.5469 42.213 78.1074C43.0743 77.7383 84.4181 77.7207 85.3145 78.0898ZM49.7188 84.0664C49.7188 85.0859 49.3673 85.7715 48.7345 86.0352C48.0313 86.334 45.9571 86.3516 45.1485 86.0879C44.4981 85.8594 44.0938 85.0859 44.0938 84.084V83.4688H46.9063H49.7188V84.0664ZM61.4083 84.2949C59.7735 85.7891 58.1036 86.2637 54.377 86.2812H52.4434L52.4962 84.875L52.5665 83.4688H57.4181L62.2872 83.4863L61.4083 84.2949ZM83.4688 84.0664C83.4688 85.0859 83.1173 85.7715 82.4845 86.0352C81.7813 86.334 79.7071 86.3516 78.8985 86.0879C78.2481 85.8594 77.8438 85.0859 77.8438 84.084V83.4688H80.6563H83.4688V84.0664Z" fill="#7800B0"/>
<path d="M30.3828 26.1641C30.1543 26.3926 30.0312 26.7441 30.0312 27.1836C30.0312 27.7812 29.9785 27.8691 29.416 28.0801C28.8359 28.291 28.748 28.2734 28.2559 27.8516C27.2363 26.9902 26.7266 27.2363 24.125 29.8906C21.541 32.5098 21.3652 32.8613 22.2266 33.8809C22.6484 34.373 22.666 34.4609 22.4551 35.041C22.2441 35.6035 22.1562 35.6562 21.5586 35.6562C21.1191 35.6562 20.7676 35.7793 20.5391 36.0078C20.2051 36.3418 20.1875 36.5879 20.1875 39.875C20.1875 43.1621 20.2051 43.4082 20.5391 43.7422C20.7676 43.9707 21.1191 44.0938 21.5586 44.0938C22.1562 44.0938 22.2441 44.1465 22.4551 44.709C22.666 45.2891 22.6484 45.377 22.2266 45.8691C21.3652 46.8887 21.541 47.2402 24.125 49.8594C26.7266 52.5137 27.2363 52.7598 28.2559 51.8984C28.748 51.4766 28.8359 51.459 29.416 51.6699C29.9785 51.8809 30.0312 51.9688 30.0312 52.5664C30.0312 53.0059 30.1543 53.3574 30.3828 53.5859C30.7168 53.9199 30.9629 53.9375 34.25 53.9375C37.5371 53.9375 37.7832 53.9199 38.1172 53.5859C38.3457 53.3574 38.4688 53.0059 38.4688 52.5664C38.4688 51.9512 38.5215 51.8809 39.1016 51.6699C39.6641 51.459 39.7695 51.4766 40.1035 51.793C41.1406 52.7422 41.7559 52.4785 44.2344 50.0176C46.9062 47.3809 47.1348 46.8887 46.2734 45.8691C45.8516 45.377 45.834 45.2891 46.0449 44.709C46.2559 44.1465 46.3438 44.0938 46.9414 44.0938C47.3809 44.0938 47.7324 43.9707 47.9609 43.7422C48.2949 43.4082 48.3125 43.1621 48.3125 39.875C48.3125 36.5879 48.2949 36.3418 47.9609 36.0078C47.7324 35.7793 47.3809 35.6562 46.9414 35.6562C46.3438 35.6562 46.2559 35.6035 46.0449 35.041C45.834 34.4609 45.8516 34.373 46.2734 33.8809C47.1348 32.8613 46.8887 32.3516 44.2344 29.75C41.6152 27.166 41.2637 26.9902 40.2441 27.8516C39.752 28.2734 39.6641 28.291 39.084 28.0801C38.5215 27.8691 38.4688 27.7812 38.4688 27.1836C38.4688 26.7441 38.3457 26.3926 38.1172 26.1641C37.7832 25.8301 37.5371 25.8125 34.25 25.8125C30.9629 25.8125 30.7168 25.8301 30.3828 26.1641ZM35.6562 29.1172C35.6562 29.873 35.9727 30.1719 37.3262 30.6465C37.9941 30.8926 38.7148 31.209 38.9434 31.3496C39.4531 31.6836 40.5605 31.6836 40.9297 31.3496C41.1758 31.1211 41.2988 31.1914 42.1426 32.0352C42.9512 32.8438 43.0215 32.9844 42.793 33.1953C42.4414 33.4766 42.4238 34.6543 42.7754 35.1816C42.916 35.4102 43.2324 36.1309 43.4785 36.7988C43.9531 38.1523 44.252 38.4688 45.0078 38.4688H45.5V39.875C45.5 41.2637 45.5 41.2812 45.043 41.2812C44.2344 41.2812 43.9531 41.5977 43.373 43.127C43.0742 43.9531 42.7402 44.6738 42.6699 44.7266C42.3887 44.8848 42.4941 46.3262 42.793 46.5547C43.0215 46.7656 42.9512 46.9062 42.1426 47.7148C41.2988 48.5586 41.1758 48.6289 40.9297 48.4004C40.4727 47.9961 39.4707 48.084 38.3281 48.6641C37.7305 48.9453 37.168 49.1914 37.0625 49.1914C36.4824 49.1914 35.832 49.7539 35.6562 50.4219L35.4629 51.125H34.1621H32.8438V50.5977C32.8438 49.877 32.3867 49.4727 31.0508 49.0332C30.418 48.8223 29.75 48.541 29.5742 48.4004C29.1348 48.0664 27.9395 48.0664 27.5703 48.4004C27.3242 48.6289 27.2012 48.5586 26.3574 47.7148C25.5488 46.9062 25.4785 46.7656 25.707 46.5547C26.0938 46.2559 26.0586 45.043 25.6543 44.375C25.4785 44.0762 25.1973 43.4082 25.0215 42.8809C24.6523 41.7383 24.2305 41.2812 23.5273 41.2812H23V39.875V38.4688H23.4922C24.2305 38.4688 24.5469 38.1523 25.0215 36.834C25.25 36.1836 25.5664 35.4805 25.7246 35.2695C26.0762 34.7598 26.0762 33.4766 25.707 33.1953C25.4785 32.9844 25.5488 32.8438 26.3574 32.0352C27.2012 31.1914 27.3242 31.1211 27.5703 31.3496C27.9746 31.7188 28.9414 31.6836 29.7676 31.2617C30.1543 31.0684 30.9453 30.7344 31.5254 30.5234C32.4922 30.1543 32.5977 30.0664 32.8086 29.3633L33.0547 28.625H34.3555H35.6562V29.1172Z" fill="#7800B0"/>
<path d="M32.0176 33.0898C30.2422 33.6699 28.6777 35.0762 27.7812 36.8867C27.3418 37.7656 27.3066 38.0293 27.3066 39.875C27.3066 41.7559 27.3418 41.9668 27.8164 42.9512C28.4844 44.3047 29.8203 45.6406 31.1738 46.3086C32.1582 46.7832 32.3691 46.8184 34.25 46.8184C36.1309 46.8184 36.3418 46.7832 37.3262 46.3086C38.6797 45.6406 40.0156 44.3047 40.6836 42.9512C41.1582 41.9668 41.1934 41.7559 41.1934 39.875C41.1934 37.9941 41.1582 37.7832 40.6836 36.7988C40.0156 35.4453 38.6797 34.1094 37.3262 33.459C36.4121 33.002 36.0605 32.9316 34.5137 32.8965C33.3887 32.8613 32.4922 32.9316 32.0176 33.0898ZM35.7969 36.1133C37.291 36.7285 38.293 38.2227 38.293 39.875C38.293 42.1426 36.5176 43.918 34.25 43.918C29.9609 43.918 28.6602 38.2051 32.4922 36.166C33.2656 35.7617 34.9004 35.7266 35.7969 36.1133Z" fill="#7800B0"/>
<path d="M14.9141 58.5078C14.5801 58.8418 14.5625 59.0879 14.5625 62.375C14.5625 65.6621 14.5801 65.9082 14.9141 66.2422C15.248 66.5762 15.4941 66.5938 18.7812 66.5938C22.0684 66.5938 22.3145 66.5762 22.6484 66.2422C22.9824 65.9082 23 65.6621 23 62.375C23 59.0879 22.9824 58.8418 22.6484 58.5078C22.3145 58.1738 22.0684 58.1562 18.7812 58.1562C15.4941 58.1562 15.248 58.1738 14.9141 58.5078ZM20.1875 62.375V63.7812H18.7812H17.375V62.375V60.9688H18.7812H20.1875V62.375Z" fill="#7800B0"/>
<path d="M28.625 59.5625V60.9688H32.1406H35.6562V59.5625V58.1562H32.1406H28.625V59.5625Z" fill="#7800B0"/>
<path d="M25.8125 65.1875V66.5938H30.7344H35.6562V65.1875V63.7812H30.7344H25.8125V65.1875Z" fill="#7800B0"/>
<path d="M14.9141 69.7578C14.5801 70.0918 14.5625 70.3379 14.5625 73.625C14.5625 76.9121 14.5801 77.1582 14.9141 77.4922C15.248 77.8262 15.4941 77.8438 18.7812 77.8438C22.0684 77.8438 22.3145 77.8262 22.6484 77.4922C22.9824 77.1582 23 76.9121 23 73.625C23 70.3379 22.9824 70.0918 22.6484 69.7578C22.3145 69.4238 22.0684 69.4062 18.7812 69.4062C15.4941 69.4062 15.248 69.4238 14.9141 69.7578ZM20.1875 73.625V75.0312H18.7812H17.375V73.625V72.2188H18.7812H20.1875V73.625Z" fill="#7800B0"/>
<path d="M28.625 70.8125V72.2188H32.1406H35.6562V70.8125V69.4062H32.1406H28.625V70.8125Z" fill="#7800B0"/>
<path d="M25.8125 76.4375V77.8438H30.7344H35.6562V76.4375V75.0312H30.7344H25.8125V76.4375Z" fill="#7800B0"/>
</svg>
