<svg width="91" height="91" viewBox="0 0 91 91" fill="none" xmlns="http://www.w3.org/2000/svg">
<g clip-path="url(#clip0_352_925)">
<path d="M2.78516 0.78125C1.99414 1.13281 1.25586 1.81836 0.833984 2.64453C0.517578 3.25977 0.5 3.75195 0.5 9.79883V16.3027L0.957031 16.6543C1.57227 17.1465 2.13477 17.1113 2.73242 16.6016L3.22461 16.1797L3.27734 10.0273C3.33008 4.08594 3.34766 3.875 3.69922 3.55859C4.0332 3.24219 4.87695 3.22461 25.8301 3.17188L47.6094 3.13672V9.9043C47.6094 16.2324 47.627 16.7246 47.9434 17.3398C48.3477 18.1133 49.0332 18.7812 49.8945 19.2383C50.457 19.5371 51.0723 19.5723 57.2422 19.625L63.957 19.6777V23.5977V27.5176L63.0254 27.2012C62.5332 27.0254 61.3203 26.709 60.3535 26.498C58.6133 26.0938 58.4551 26.0938 42.3359 26.041L26.0586 25.9707L25.584 26.3398C24.9863 26.8145 24.916 27.9043 25.4609 28.4492C25.7949 28.7832 26.041 28.8008 35.1641 28.8008H44.5156L42.9336 29.8379C42.0723 30.4004 40.9473 31.2441 40.4551 31.6836L39.5586 32.4922H32.6855C26.041 32.4922 25.7949 32.5098 25.4609 32.8438C24.916 33.3887 24.9863 34.4785 25.5664 34.9355C26.0234 35.2871 26.2344 35.3047 31.5254 35.3047H37.0273L36.2363 36.4824C34.8477 38.5566 33.6875 41.2285 33.0195 43.8652L32.8262 44.6211H29.3633C25.3027 44.6211 25.1094 44.6738 25.1094 45.9219C25.1094 47.2578 25.3203 47.3457 29.1348 47.3984L32.4043 47.4512V49.209V50.9492H29.2227C26.2695 50.9492 26.0059 50.9668 25.5664 51.3184C24.9863 51.7754 24.916 52.8652 25.4609 53.4102C25.7949 53.7441 26.041 53.7617 29.293 53.7617H32.791L33.0195 54.7637C33.5645 57.2422 34.7949 60.0898 36.2363 62.252L37.0273 63.4297H31.5254C26.2344 63.4297 26.0234 63.4473 25.5664 63.7988C24.9863 64.2559 24.916 65.3457 25.4609 65.8906C25.7949 66.2246 26.041 66.2422 32.668 66.2422H39.541L40.7188 67.2441C41.3516 67.7891 42.4766 68.6152 43.2148 69.0898L44.5332 69.9336H35.1641C26.041 69.9336 25.7949 69.9512 25.4609 70.2852C24.9688 70.7773 24.9863 71.8672 25.4785 72.3242C25.8301 72.6406 26.3574 72.6582 42.0547 72.6582C59.7383 72.6582 59.2988 72.6758 62.6738 71.6035L63.9746 71.1992L63.9219 79.0918L63.8691 86.9668L63.4648 87.3711L63.0605 87.7754H33.5645C4.78906 87.7754 4.05078 87.7754 3.68164 87.4414L3.3125 87.1074V54.0254C3.3125 30.3301 3.25977 20.7852 3.11914 20.3809C3.01367 20.082 2.78516 19.748 2.60938 19.6602C2.06445 19.3789 1.2207 19.4668 0.851562 19.8359C0.5 20.1875 0.5 20.416 0.5 53.8848C0.5 86.334 0.517578 87.6348 0.833984 88.3027C1.23828 89.1641 1.95898 89.8672 2.82031 90.2188C3.40039 90.4648 6.77539 90.5 33.6348 90.5C61.0391 90.5 63.8516 90.4824 64.3613 90.2188C65.1523 89.8145 65.8555 89.1289 66.2949 88.3027C66.6816 87.6172 66.6816 87.4238 66.7344 78.7754L66.7871 69.9512L67.5957 69.4941L68.4043 69.0195L69.8809 70.4961C71.3398 71.9551 71.3398 71.9727 71.1465 72.5352C71.0059 72.9746 71.0059 73.2383 71.1641 73.6074C71.2695 73.8887 73.3965 76.1387 75.8926 78.6172C81.3066 83.9785 81.4648 84.084 84.2598 84.084C85.7891 84.084 86.1406 84.0312 87.002 83.627C88.2148 83.0469 89.2695 82.0273 89.9199 80.7969C90.377 79.9355 90.4121 79.707 90.4121 77.9316C90.4121 75.084 90.4473 75.1367 84.8926 69.5469C80.0586 64.6602 79.6191 64.3262 78.7754 64.8184C78.5117 64.959 78.2305 64.7656 76.9297 63.4824L75.418 61.9707L76.2617 60.3711C77.6855 57.6992 78.5293 55.0449 78.8984 52.0391C79.127 50.0176 78.793 49.3672 77.5098 49.3672C77.1406 49.3672 76.2617 49.8945 76.2617 50.123C76.2617 50.7383 75.8047 53.498 75.5234 54.5527C73.9414 60.5996 69.2656 65.9434 63.5527 68.2812C59.334 69.9863 55.0273 70.3027 50.7031 69.2129C43.9004 67.4902 38.3105 62.252 36.2012 55.6074C34.8828 51.4766 34.9004 46.8711 36.2539 42.8984C38.1875 37.2207 42.582 32.5625 48.0488 30.3652C55.5371 27.377 63.8516 28.959 69.6875 34.4785C72.8516 37.4844 74.5742 40.4023 75.6465 44.6211C76.1387 46.5723 76.4902 46.9941 77.4922 46.8359C78.4062 46.6953 78.7754 46.1328 78.6523 45.1133C78.3359 42.7402 76.7539 38.8203 75.1367 36.3945C73.4668 33.8809 71.1816 31.6309 68.4395 29.8203L66.8574 28.7656L66.7695 23.1582L66.6816 17.5508L58.1562 9.02539L49.6309 0.5H26.5156C6.26562 0.517578 3.33008 0.552734 2.78516 0.78125ZM60.4062 16.8125C59.5977 16.8477 57.1895 16.8477 55.0625 16.8125C51.5117 16.7598 51.125 16.7246 50.791 16.4258C50.4395 16.0918 50.4219 15.9512 50.4219 10.7129V5.33398L56.1348 11.0469L61.8477 16.7598L60.4062 16.8125ZM75.0312 65.8027L76.3496 67.1211L74.8906 68.5801L73.4492 70.0215L72.0957 68.668L70.7422 67.3145L72.1309 65.9082C72.9043 65.1172 73.5723 64.4844 73.625 64.4844C73.6777 64.4844 74.3105 65.082 75.0312 65.8027ZM83.3281 71.9902C85.4023 74.0996 87.248 76.0684 87.4062 76.3848C87.7578 77.0703 87.7754 78.5293 87.4414 79.3027C87.1426 79.9883 86.1934 80.9199 85.5254 81.166C84.8926 81.4121 83.627 81.4121 82.9941 81.1836C82.7305 81.0781 80.709 79.1973 78.5117 77L74.5039 73.0098L76.9121 70.6016C78.248 69.2656 79.373 68.1758 79.4258 68.1758C79.4785 68.1758 81.2363 69.8984 83.3281 71.9902Z" fill="#7800B0"/>
<path d="M11.3984 24.881C10.7656 25.1271 10.1328 25.7072 9.81641 26.34C9.5 26.9552 9.46484 27.3947 9.46484 30.6466C9.46484 34.7072 9.58789 35.2169 10.7305 36.0431C11.293 36.4298 11.4512 36.4474 15.2656 36.5001C19.168 36.5529 19.2383 36.5529 19.8359 36.1486C20.1699 35.9201 20.627 35.463 20.8379 35.1466C21.2246 34.5665 21.2422 34.4083 21.2422 30.6466C21.2422 26.8849 21.2246 26.7267 20.8555 26.1642C19.959 24.8634 19.8887 24.8458 15.5645 24.8107C13.4199 24.7931 11.5391 24.8283 11.3984 24.881ZM18.4297 30.6466V33.7228H15.3535H12.2773V30.6466V27.5705H15.3535H18.4297V30.6466Z" fill="#7800B0"/>
<path d="M53.1465 32.2634C45.834 33.283 39.6993 39.3826 38.627 46.7478C38.2051 49.6482 38.7325 54.2009 39.6114 55.1677C40.0508 55.6599 41.1582 55.6423 41.6504 55.1502C42.0547 54.7459 42.0547 54.447 41.5625 52.0916C40.4727 47.0291 42.5118 41.492 46.6778 38.1521C48.1719 36.9392 49.3672 36.3064 51.3008 35.6209C52.9004 35.0759 53.0938 35.0584 55.6075 35.0408C58.6133 35.0408 59.5801 35.2517 61.9356 36.3767C70.2325 40.3494 72.7286 51.0193 67.0684 58.2615C65.5391 60.1951 63.3067 61.9002 61.0918 62.7791C58.0684 63.992 54.3243 64.115 51.3008 63.0955C48.6817 62.2166 46.5196 60.7752 44.7793 58.7361C43.8829 57.699 43.3555 57.4002 42.67 57.5408C42.0371 57.6814 41.6329 58.2263 41.6329 58.947C41.6329 60.2302 45.043 63.3591 48.0489 64.8357C50.8262 66.2068 52.2149 66.5056 55.7832 66.4881C58.2793 66.4881 59 66.4177 60.1426 66.1013C66.0313 64.4666 70.5137 60.0896 72.3418 54.1658C72.7813 52.7244 72.8164 52.408 72.8164 49.367C72.8164 46.3084 72.7813 46.0095 72.3418 44.5506C70.4258 38.3455 65.4688 33.74 59.334 32.4744C57.8047 32.158 54.6582 32.0525 53.1465 32.2634Z" fill="#7800B0"/>
<path d="M60.1778 41.9668C59.1758 42.2129 58.5782 42.6699 56.4161 44.8672L54.2364 47.082L53.6036 46.5723C52.2501 45.5 51.1602 45.2012 49.7364 45.5176C47.8204 45.9219 46.5372 47.5215 46.5372 49.5078C46.5196 51.1602 46.9063 51.793 49.4903 54.3242C52.0216 56.8203 52.7598 57.2598 54.3067 57.2773C55.9766 57.2773 56.627 56.7852 60.8809 52.3906C64.9942 48.1719 65.3458 47.6445 65.3633 46.0098C65.3633 43.3027 62.8321 41.334 60.1778 41.9668ZM61.7247 44.832C62.2872 45.1133 62.5333 45.5176 62.5508 46.0801C62.5508 46.502 61.9532 47.2051 59.0001 50.2109C57.0489 52.2148 55.2911 53.9902 55.0977 54.1484C54.2891 54.8164 53.8848 54.6055 51.5469 52.3203C49.6133 50.4395 49.3673 50.123 49.3673 49.5957C49.3673 48.7168 50.0176 48.1719 50.9317 48.3125C51.0723 48.3301 51.7755 48.8574 52.4786 49.4727C54.4298 51.1777 54.3067 51.2129 57.7169 47.7148C60.8458 44.498 60.9512 44.4102 61.7247 44.832Z" fill="#7800B0"/>
<path d="M11.5039 43.3907C10.8535 43.6016 10.0098 44.375 9.71094 45.0958C9.35938 45.9043 9.35938 52.4786 9.71094 53.2872C10.0273 54.043 10.8887 54.7637 11.7852 54.9922C12.2246 55.1153 13.7891 55.168 15.8633 55.1329C19.0273 55.0801 19.2559 55.0626 19.8887 54.6583C20.2578 54.4473 20.7148 53.9376 20.9082 53.5508C21.2422 52.918 21.2598 52.584 21.207 48.9629C21.1543 45.1661 21.1367 45.043 20.7324 44.4629C19.9414 43.3731 19.3086 43.2149 15.4414 43.2325C13.5605 43.2325 11.7852 43.3204 11.5039 43.3907ZM18.3945 49.1387L18.3418 52.2676H15.3535H12.3652L12.3125 49.3672C12.2949 47.7852 12.3125 46.379 12.3477 46.2559C12.418 46.0801 13.1562 46.0274 15.4414 46.0274H18.4297L18.3945 49.1387Z" fill="#7800B0"/>
<path d="M11.1172 62.4453C10.8184 62.5859 10.3438 62.9902 10.0625 63.3593L9.55276 64.0097L9.50003 67.8945C9.46487 71.6562 9.46487 71.7968 9.86917 72.4824C10.0801 72.8691 10.5723 73.3613 10.959 73.5722C11.6446 73.9765 11.7852 73.9765 15.5645 73.9414C19.8887 73.8886 19.959 73.8711 20.8379 72.5703C21.2246 72.0078 21.2422 71.8496 21.2422 68.0879C21.2422 64.3261 21.2246 64.1679 20.8379 63.5879C20.627 63.2715 20.17 62.8144 19.8535 62.6035C19.2735 62.2168 19.1153 62.1992 15.459 62.1992C12.6641 62.2168 11.5215 62.2695 11.1172 62.4453ZM18.4297 68.0879V71.164H15.3535H12.2774V68.0879V65.0117H15.3535H18.4297V68.0879Z" fill="#7800B0"/>
</g>
<defs>
<clipPath id="clip0_352_925">
<rect width="90" height="90" fill="white" transform="translate(0.5 0.5)"/>
</clipPath>
</defs>
</svg>
