<svg width="91" height="91" viewBox="0 0 91 91" fill="none" xmlns="http://www.w3.org/2000/svg">
<path d="M8.90234 1.20302C6.72266 1.48427 4.77148 2.94325 3.78711 5.03505L3.22461 6.21278V45.4999V84.787L3.78711 85.9647C4.8418 88.1796 6.72266 89.5155 9.23633 89.8143C10.0449 89.9198 18.5527 89.9726 29.7676 89.9374C48.752 89.8847 48.9277 89.8847 49.8242 89.5155C51.8984 88.6542 53.252 87.2655 53.9199 85.2792C54.6758 83.0643 54.2715 81.7108 52.8652 81.7108C52.1445 81.7108 51.4766 82.2909 51.4766 82.9237C51.4766 84.4003 50.4219 86.0526 49.1211 86.6503C48.4355 86.9667 47.4512 86.9843 28.748 86.9843C11.3809 86.9843 9.02539 86.9491 8.44531 86.703C7.61914 86.369 6.89844 85.6835 6.42383 84.787L6.03711 84.0839V45.4999V6.91591L6.42383 6.21278C6.89844 5.3163 7.61914 4.63075 8.44531 4.29677C9.02539 4.05067 11.3809 4.01552 28.748 4.01552C47.4512 4.01552 48.4355 4.0331 49.1211 4.3495C50.4043 4.92958 51.4766 6.5995 51.4766 8.02333C51.4766 8.21669 51.6348 8.56825 51.8457 8.83192C52.127 9.18349 52.3555 9.28896 52.8652 9.28896C54.2715 9.28896 54.6582 7.93544 53.9199 5.7206C53.252 3.73427 51.8984 2.3456 49.8242 1.48427C48.9277 1.11513 48.7871 1.11513 29.416 1.09755C18.6934 1.07997 9.44727 1.13271 8.90234 1.20302Z" fill="#7800B0"/>
<path d="M11.1699 6.72266C10.168 7.0918 9.55273 7.6543 8.88477 8.84961L8.49805 9.55273V45.5V81.4473L8.86719 82.1504C9.32422 82.9941 10.0449 83.7324 10.7832 84.1367C11.2578 84.418 12.8398 84.4355 28.7129 84.4355C44.8496 84.4355 46.1504 84.418 46.6602 84.1367C47.9961 83.3984 48.8574 82.0625 48.9102 80.6387C48.9277 79.5664 48.4531 79.0039 47.5391 79.0039C46.748 79.0039 46.2207 79.4785 46.0977 80.3398C46.0273 80.7617 45.8164 81.1484 45.5352 81.3594C45.1133 81.7109 44.7441 81.7109 28.6777 81.7109H12.2598L11.8379 81.2715L11.3984 80.8496V45.5V10.1504L11.8379 9.72852L12.2598 9.28906H28.6777C44.7441 9.28906 45.1133 9.28906 45.5352 9.64062C45.8164 9.85156 46.0273 10.2383 46.0977 10.6602C46.2207 11.5215 46.748 11.9961 47.5391 11.9961C48.4531 11.9961 48.9277 11.4336 48.9102 10.3613C48.8574 8.9375 47.9961 7.60156 46.6602 6.86328C46.1504 6.58203 44.8144 6.56445 28.9766 6.5293C14.8262 6.49414 11.7148 6.5293 11.1699 6.72266Z" fill="#7800B0"/>
<path d="M19.6603 12.2773C19.1505 12.7871 19.1856 13.7539 19.7481 14.2988L20.17 14.7383H25.338C30.3126 14.7383 30.5235 14.7207 30.9806 14.3691C31.5606 13.9121 31.631 12.8223 31.086 12.2773C30.7521 11.9434 30.506 11.9258 25.3731 11.9258C20.2403 11.9258 19.9942 11.9434 19.6603 12.2773Z" fill="#7800B0"/>
<path d="M34.4258 12.2773C34.1973 12.5059 34.0742 12.8574 34.0742 13.3145C34.0742 14.334 34.6543 14.7383 36.0957 14.7383C37.5371 14.7383 38.1172 14.334 38.1172 13.3145C38.1172 12.2246 37.6953 11.9258 36.0957 11.9258C35.0059 11.9258 34.707 11.9961 34.4258 12.2773Z" fill="#7800B0"/>
<path d="M50.2285 13.4198C49.3672 13.7011 48.3301 14.5975 47.8379 15.494C47.5566 16.0038 47.5215 16.7772 47.4688 23.035L47.416 30.0311H41.3867C35.9727 30.0311 35.2168 30.0663 34.0039 30.3827C31.4727 31.0331 28.9766 32.6327 27.3945 34.619L26.7441 35.4276L26.4102 34.9179C25.9004 34.1268 24.6348 33.2304 23.6504 32.9315C22.9648 32.7382 21.7871 32.6679 18.7461 32.6679H14.7207L14.2988 33.1073L13.8594 33.5292V46.1679C13.8594 58.6132 13.8594 58.8065 14.2109 59.1757C14.4043 59.3866 14.7559 59.5975 15.002 59.6679C15.2305 59.7206 17.1816 59.7382 19.3438 59.703C23.8438 59.6327 24.4238 59.4745 25.8125 58.0682L26.5684 57.2948L27.0957 58.121C28.7656 60.7929 31.6836 63.078 34.707 64.1503C36.7812 64.871 38.0996 65.0116 42.8633 65.0116H47.416L47.4688 69.9686C47.5215 75.5057 47.5215 75.4706 48.7871 76.7011C50 77.8788 49.3672 77.8436 67.6484 77.8436C85.4902 77.8436 85.0508 77.8612 86.334 76.8768C86.6855 76.6307 87.1602 75.9979 87.4238 75.5057L87.8633 74.6093V45.4999V16.3905L87.4238 15.494C86.8965 14.4393 86.0527 13.7362 84.9102 13.4022C83.7148 13.0331 51.4062 13.0682 50.2285 13.4198ZM84.6289 16.5487L85.0508 17.0409V45.4999V73.9589L84.6289 74.4511L84.207 74.9432H67.6484H51.0898L50.668 74.4511L50.2461 73.9589V69.4765V65.0116H51.5645H52.8828V65.6796C52.8828 66.5761 53.2695 66.91 54.5176 67.121C55.7656 67.3143 56.3633 67.6307 57.1543 68.5097C57.7871 69.2128 58.1562 70.1268 58.1562 71.0409C58.1562 71.3222 58.332 71.7089 58.5957 71.955L59.0176 72.3944H67.7188H76.4199L76.7715 71.9374C76.9824 71.6737 77.1406 71.2694 77.1406 71.0057C77.1406 70.1268 77.5098 69.1952 78.1426 68.5097C78.9336 67.6307 79.5312 67.3143 80.7969 67.121C81.377 67.0155 81.9219 66.8046 82.1504 66.5936C82.502 66.2421 82.502 66.1542 82.502 45.4999C82.502 24.8456 82.502 24.7577 82.1504 24.4061C81.9219 24.1952 81.377 23.9843 80.7969 23.8788C79.5312 23.6854 78.9336 23.369 78.1426 22.4901C77.5098 21.8046 77.1406 20.8729 77.1406 19.994C77.1406 19.7304 76.9824 19.3261 76.7715 19.0624L76.4199 18.6054H67.7188H59.0176L58.5957 19.0448C58.332 19.2909 58.1562 19.6776 58.1562 19.9589C58.1562 20.8729 57.7871 21.787 57.1543 22.4901C56.3633 23.369 55.7656 23.6854 54.5176 23.8788C52.707 24.1776 52.8828 22.6132 52.8828 39.1366V53.621L51.7402 52.5487C51.1074 51.9686 50.5098 51.4765 50.4219 51.4765C50.3164 51.4765 50.2461 45.1835 50.2461 34.2675C50.2461 17.287 50.2461 17.0585 50.5977 16.619C50.791 16.3729 51.125 16.1268 51.3535 16.0917C51.5645 16.0565 59.0527 16.0214 67.9648 16.039L84.207 16.0565L84.6289 16.5487ZM74.6445 22.1561C75.207 23.9667 76.666 25.5136 78.4941 26.2694L79.5137 26.6737V45.4999V64.3261L78.5117 64.7304C77.9668 64.9589 77.1758 65.3983 76.7715 65.7323C75.8926 66.4179 74.7324 68.1405 74.5742 68.9843L74.4688 69.5819H67.666H60.8633L60.6699 68.8261C60.3887 67.789 59.4746 66.5057 58.4551 65.6972L57.5938 65.0116H59.8789C62.5156 65.0116 62.8672 64.871 63.0078 63.6932C63.1484 62.7265 62.6562 60.5643 62.0234 59.2636C61.0215 57.2245 58.9473 55.8182 56.6094 55.5722L55.6953 55.4667L55.7305 41.0702L55.7832 26.6737L56.8027 26.2694C58.6484 25.5136 60.2129 23.8436 60.6699 22.1561L60.8633 21.4179H67.6484H74.416L74.6445 22.1561ZM47.4336 34.3202V35.7968L46.6426 36.8515C45.6758 38.1347 44.1289 39.5761 42.5469 40.6835C40.7188 41.9667 40.5781 42.1249 40.5781 42.8983C40.5781 43.7597 41.0703 44.2694 41.8789 44.2694C42.582 44.2694 44.4453 43.0917 46.2031 41.5624L47.3457 40.5604L47.3984 45.2538C47.416 47.8378 47.416 49.9647 47.3809 49.9999C47.3457 50.035 46.9062 49.9296 46.3789 49.789C45.8516 49.6483 44.498 49.4725 43.3906 49.4198C41.5801 49.3319 41.334 49.3671 40.9648 49.6659C40.3672 50.1405 40.3848 51.2304 40.9824 51.7577C41.334 52.0565 41.7383 52.1444 43.0566 52.2323C47.3809 52.5311 50.4922 54.3065 51.4062 56.996C51.8281 58.2089 52.1094 58.3319 54.377 58.3319C56.6973 58.3319 57.6641 58.5956 58.5957 59.5097C59.2637 60.16 59.8965 61.3202 59.9141 61.9003C59.9141 62.1991 59.3867 62.2167 48.8047 62.164C37.6777 62.1112 37.6777 62.1112 36.4473 61.6893C34.1797 60.9335 32.8789 60.1249 31.1738 58.4198C29.873 57.1366 29.4336 56.5565 28.8359 55.3436C27.5879 52.7772 27.4824 52.1268 27.4824 46.203C27.4824 41.6854 27.5176 40.8768 27.7988 39.9628C28.5723 37.4315 30.3828 35.1991 32.6328 34.0214C34.6719 32.9491 35.2344 32.8788 41.6855 32.8612L47.4336 32.8436V34.3202ZM23.2988 35.9374C23.5625 36.1307 23.9668 36.5702 24.1953 36.8866L24.582 37.4667V46.0975C24.582 55.7128 24.5996 55.5194 23.3691 56.3456C22.8066 56.7323 22.5957 56.7499 19.7305 56.7499H16.6719V46.0975V35.4628L19.7305 35.5155C22.5254 35.5682 22.8418 35.6034 23.2988 35.9374Z" fill="#7800B0"/>
<path d="M67.0331 33.916C66.453 34.25 66.2421 34.6367 66.2421 35.3398C66.2421 35.7617 66.1542 36.0078 66.0311 36.0078C65.9081 36.0078 65.328 36.2363 64.7479 36.5176C62.7792 37.4492 61.496 39.3477 61.496 41.3691C61.496 42.8633 61.953 43.8652 63.1659 45.0957C64.08 45.9922 64.4315 46.2207 65.4335 46.5371C66.1014 46.748 66.9628 46.9063 67.3671 46.9063C70.1268 46.9063 71.8495 49.2266 70.4257 51.0371C68.7909 53.1113 64.8007 52.373 64.3788 49.9121C64.203 48.7871 64.1151 48.6289 63.5175 48.3828C62.8319 48.1016 61.953 48.3125 61.6718 48.8398C61.1444 49.8066 61.7069 51.793 62.8319 53.041C63.5702 53.8496 65.4159 54.9922 66.0136 54.9922C66.1542 54.9922 66.2421 55.2031 66.2421 55.5898C66.2421 56.4336 66.3827 56.7324 66.9803 57.0313C68.0526 57.5938 69.0546 56.9258 69.0546 55.6602C69.0546 55.2383 69.1425 54.9922 69.2831 54.9922C69.8983 54.9922 71.6737 53.9199 72.4296 53.0762C73.4843 51.8984 73.871 50.7734 73.7655 49.209C73.6425 47.5742 72.9745 46.3789 71.5331 45.2891C70.7772 44.709 68.9491 44.0938 67.9647 44.0938C66.2421 44.0938 64.6249 43.0391 64.3964 41.7734C64.0448 39.9453 66.2772 38.3281 68.4569 38.8027C70.0214 39.1543 70.6718 39.9102 71.0761 41.8613C71.287 42.8633 73.1327 43.0742 73.6249 42.1602C74.1522 41.1758 73.5897 39.207 72.4296 37.9238C71.6737 37.0801 69.8983 36.0078 69.2831 36.0078C69.1425 36.0078 69.0546 35.7617 69.0546 35.3223C69.0546 34.9355 68.9315 34.4785 68.7557 34.2676C68.369 33.8281 67.5077 33.6523 67.0331 33.916Z" fill="#7800B0"/>
<path d="M20.1874 38.7677C19.2909 39.1017 18.9921 40.3322 19.6249 41.1056C20.0995 41.7033 21.1718 41.6681 21.6991 41.0353C22.2616 40.3849 22.2265 39.7872 21.6112 39.1544C21.1191 38.6622 20.7499 38.5568 20.1874 38.7677Z" fill="#7800B0"/>
<path d="M20.3106 75.3477C20.1524 75.5234 19.9591 75.9102 19.9063 76.2266C19.8184 76.6836 19.8887 76.8594 20.3282 77.3164C20.8204 77.791 20.961 77.8438 21.9981 77.8438C23.4747 77.8438 24.0548 77.4395 24.0548 76.4199C24.0548 75.3125 23.6329 75.0312 21.9805 75.0312C20.8555 75.0312 20.5391 75.1016 20.3106 75.3477Z" fill="#7800B0"/>
<path d="M27.0429 75.3828C26.4629 75.9629 26.5156 76.877 27.1484 77.4395C27.5176 77.7734 27.7988 77.8438 28.7129 77.8438C30.1719 77.8438 30.8222 77.3691 30.7871 76.332C30.7519 75.3125 30.2949 75.0312 28.6953 75.0312C27.623 75.0312 27.3242 75.1016 27.0429 75.3828Z" fill="#7800B0"/>
<path d="M33.7225 75.4178C33.2831 75.8924 33.2655 76.7889 33.705 77.3338C33.9511 77.6502 34.2499 77.7381 35.1112 77.8084C36.3768 77.8963 37.1151 77.6502 37.3964 77.035C37.6776 76.4022 37.6425 76.0154 37.2206 75.4881C36.8866 75.0662 36.7636 75.0311 35.4804 75.0311C34.2675 75.0311 34.039 75.0838 33.7225 75.4178Z" fill="#7800B0"/>
</svg>
