<svg width="91" height="90" viewBox="0 0 91 90" fill="none" xmlns="http://www.w3.org/2000/svg">
<g clip-path="url(#clip0_129_977)">
<path d="M29.3281 28.2305C26.0059 28.7402 24.5645 29.2676 18.7812 32.0977C12.8223 35.0156 12.1016 35.2441 6.72266 35.9297C3.06641 36.4043 2.31055 36.6328 1.4668 37.6523C0.517578 38.7598 0.5 38.9531 0.5 44.7012C0.5 50.8711 0.552734 51.1172 1.92383 52.6289C2.96094 53.7715 3.52344 54.0176 7.51367 55.125L10.5547 55.9863L11.1699 57.1992C12.6289 60.082 15.5293 61.875 18.6758 61.875C20.1875 61.8574 21.1543 61.6465 22.4199 61.0664C23.4395 60.5742 25.2852 58.9922 25.7598 58.166L26.0586 57.6563H46.2031H66.3477L66.6465 58.166C67.1211 58.9922 68.9668 60.5742 69.9863 61.0664C71.2168 61.6465 72.2188 61.8574 73.625 61.875C76.9648 61.875 79.8652 60.0469 81.3066 57.0059C81.9043 55.793 81.9746 55.459 82.0273 53.9473C82.1504 51.2227 81.377 49.1836 79.584 47.4258C75.4883 43.418 68.5449 44.6309 66.084 49.7988C65.4688 51.082 65.0996 52.9805 65.2578 54.0703L65.3633 54.8438H46.2031H27.043L27.1484 54.0703C27.5703 51.082 25.4785 47.3906 22.5605 45.9492C17.5156 43.4531 11.5039 46.3359 10.4844 51.7324C10.3613 52.3828 10.1855 52.9102 10.0801 52.9102C9.99219 52.9102 8.72656 52.5586 7.30273 52.1367C3.55859 51.0469 3.29492 50.7305 3.17188 47.2324L3.10156 45H3.98047C4.47266 45 5.07031 44.9121 5.31641 44.8066C6.16016 44.4199 6.24805 43.0313 5.45703 42.4336C5.29883 42.293 4.70117 42.1875 4.15625 42.1875H3.13672V41.3965C3.13672 40.4473 3.50586 39.4629 3.96289 39.2344C4.13867 39.1465 5.07031 38.9707 6.03711 38.8652C11.5039 38.2148 12.7344 37.9512 15.582 36.791L17.5684 36L19.291 37.6699C21.8926 40.1836 23.3516 40.7813 27.0605 40.7813C29.5391 40.7813 29.9434 40.5879 29.9434 39.375C29.9434 38.1797 29.5215 37.9688 27.1836 37.9688C25.4434 37.9688 25.2676 37.9336 25.3555 37.6523C25.4082 37.4941 25.7246 36.0879 26.0762 34.541C26.4277 32.9941 26.7441 31.7109 26.7793 31.6758C26.8145 31.6231 27.3066 31.4824 27.8691 31.3242C28.6074 31.1309 30.1895 31.043 33.6875 30.9902L38.4688 30.9023V34.4356V37.9688H36.0957C33.793 37.9688 33.6875 37.9863 33.2832 38.4082C33.002 38.6719 32.8438 39.041 32.8438 39.375C32.8438 39.709 33.002 40.0781 33.2832 40.3418L33.7051 40.7813H50.3691C66.8047 40.7813 69.6875 40.8516 73.8008 41.3965C78.2656 41.9941 82.7656 43.1367 85.0508 44.2617L86.3691 44.9121L85.4902 44.9648C85.0156 44.9824 84.4355 45.0879 84.2246 45.2109C83.6973 45.4746 83.4336 46.2832 83.6621 46.8809C83.9609 47.6719 84.3125 47.7949 86.0527 47.8125C87.6523 47.8125 87.6875 47.8125 87.793 48.2695C87.8633 48.5156 87.8633 49.7988 87.8281 51.1172C87.7227 54.123 87.4238 54.8438 86.2812 54.8438C85.8418 54.8438 85.0859 55.5469 85.0332 55.9863C84.9805 56.6895 85.0508 56.9531 85.4023 57.3047C86.2285 58.1309 88.6191 57.4277 89.6035 56.0566C90.4473 54.9141 90.5352 54.3164 90.4648 50.0273C90.4121 46.1953 90.4121 46.125 89.9199 45.1582C89.2168 43.7168 88.2324 42.6797 86.8613 41.959C82.9414 39.9199 75.9805 38.4785 67.8242 38.0391L65.627 37.916L60.1426 34.4356C53.6211 30.2871 52.918 29.8828 50.8613 29.1973C47.8555 28.1953 46.9941 28.125 37.959 28.1426C33.459 28.1602 29.5742 28.1953 29.3281 28.2305ZM48.5762 31.4473C50.5801 31.9746 52.3906 32.8887 56.2578 35.3496C58.1211 36.5273 59.8086 37.5996 60.002 37.7227C60.2832 37.9336 58.8945 37.9688 50.8086 37.9688H41.2812V34.4356V30.9023L44.2344 30.9902C46.4668 31.043 47.5039 31.1484 48.5762 31.4473ZM23.4746 33.2578C23.4395 33.3809 23.2285 34.2598 23 35.2266L22.6133 36.9668L21.4531 35.8066C20.8203 35.1563 20.3281 34.6113 20.3633 34.5762C20.5215 34.418 23.2637 33.0645 23.4219 33.0469C23.4922 33.0469 23.5273 33.1523 23.4746 33.2578ZM21.1543 48.4102C22.543 49.0957 23.6152 50.3789 24.0723 51.8906C24.6875 53.8945 24.2656 55.6348 22.8066 57.2168C20.1699 60.082 15.6523 59.502 13.7715 56.0566C13.0684 54.7559 12.9629 52.9102 13.5078 51.4512C14.123 49.8164 15.7051 48.4277 17.4629 47.9707C18.4297 47.707 20.1348 47.918 21.1543 48.4102ZM76.0156 48.3574C77.2285 48.9375 78.4414 50.2207 78.8984 51.4512C79.7246 53.6309 79.0918 56.127 77.3516 57.6738C73.9941 60.627 68.668 58.5352 68.0703 54.0176C67.8242 52.1191 69.002 49.7461 70.7422 48.6738C72.2891 47.7246 74.3809 47.6016 76.0156 48.3574Z" fill="#7800B0"/>
<path d="M19.2207 51.1523C19.0273 51.2227 18.2891 51.8906 17.6035 52.6113C16.584 53.6484 16.3203 54.0352 16.3203 54.457C16.3203 55.2832 16.8477 55.8105 17.7266 55.8105C18.3945 55.8105 18.5527 55.7051 19.7656 54.4746C20.8906 53.3145 21.0664 53.0508 21.0664 52.5059C21.0664 51.4863 20.1172 50.7832 19.2207 51.1523Z" fill="#7800B0"/>
<path d="M72.2715 51.0996C71.7266 51.2051 71.3398 51.8027 71.3398 52.5234C71.3398 53.0332 71.5332 53.332 72.6406 54.4746C73.8535 55.7051 74.0117 55.8105 74.6797 55.8105C75.5586 55.8105 76.0859 55.2832 76.0859 54.457C76.0859 54.0176 75.8223 53.6484 74.7324 52.541C73.3613 51.1699 72.9922 50.959 72.2715 51.0996Z" fill="#7800B0"/>
<path d="M30.4708 49.6582C29.8556 50.2559 29.8731 51.1699 30.4884 51.6621C30.963 52.0312 31.0509 52.0312 46.2032 52.0312C61.3556 52.0312 61.4435 52.0312 61.9181 51.6621C62.5333 51.1699 62.5509 50.2559 61.9356 49.6582L61.5138 49.2188H46.2032H30.8927L30.4708 49.6582Z" fill="#7800B0"/>
</g>
<defs>
<clipPath id="clip0_129_977">
<rect width="90" height="90" fill="white" transform="translate(0.5)"/>
</clipPath>
</defs>
</svg>
